<svg xmlns="http://www.w3.org/2000/svg" xmlns:xlink="http://www.w3.org/1999/xlink" version="1.1" id="Your_Icon" x="0px" y="0px" width="100px" height="100px" viewBox="0 0 100 100" enable-background="new 0 0 100 100" xml:space="preserve">
<g>
	<path d="M100,32.746c0-0.067-0.009-0.133-0.014-0.199c-0.004-0.062-0.004-0.126-0.013-0.188c-0.009-0.063-0.024-0.125-0.037-0.187   c-0.013-0.065-0.022-0.13-0.039-0.194c-0.016-0.058-0.039-0.114-0.059-0.171c-0.021-0.064-0.04-0.131-0.065-0.194   c-0.024-0.057-0.056-0.11-0.083-0.167c-0.028-0.059-0.054-0.12-0.087-0.177c-0.033-0.057-0.072-0.109-0.109-0.163   C99.46,31.055,99.429,31,99.39,30.95c-0.04-0.053-0.088-0.102-0.132-0.153c-0.041-0.045-0.077-0.094-0.121-0.138   c-0.046-0.045-0.098-0.086-0.146-0.129c-0.049-0.042-0.094-0.087-0.146-0.127c-0.103-0.08-0.212-0.152-0.326-0.219L51.374,2.966   c-0.919-0.531-2.052-0.529-2.97,0.004L1.584,30.179c0,0-0.001,0-0.001,0.001c0,0-0.001,0-0.001,0.001l-0.009,0.005   c-0.05,0.03-0.095,0.065-0.144,0.097c-0.059,0.04-0.121,0.076-0.177,0.12c-0.053,0.04-0.1,0.086-0.149,0.13   c-0.047,0.042-0.097,0.081-0.142,0.125c-0.048,0.049-0.09,0.103-0.135,0.154c-0.039,0.045-0.081,0.089-0.118,0.135   c-0.042,0.055-0.077,0.114-0.115,0.172c-0.032,0.049-0.068,0.096-0.098,0.147c-0.033,0.058-0.059,0.119-0.089,0.18   C0.379,31.5,0.348,31.553,0.325,31.61C0.3,31.67,0.282,31.734,0.261,31.796c-0.021,0.059-0.044,0.116-0.061,0.177   c-0.017,0.064-0.027,0.131-0.04,0.197c-0.012,0.061-0.028,0.121-0.037,0.183c-0.009,0.066-0.009,0.134-0.014,0.201   c-0.004,0.062-0.013,0.122-0.013,0.185L0,67.241c-0.003,1.061,0.562,2.043,1.481,2.573l47.145,27.219   c0.458,0.266,0.97,0.397,1.48,0.397c0.129,0,0.257-0.008,0.385-0.024c0.023-0.004,0.046-0.011,0.069-0.015   c0.104-0.016,0.207-0.034,0.31-0.062c0.023-0.005,0.046-0.017,0.069-0.022c0.101-0.03,0.201-0.062,0.3-0.102   c0.028-0.013,0.055-0.028,0.083-0.041c0.088-0.04,0.177-0.08,0.263-0.129c0.002-0.002,0.004-0.003,0.006-0.004   c0.002-0.002,0.004-0.002,0.005-0.003l46.833-27.217c0.909-0.528,1.471-1.5,1.474-2.553L100,32.759c0-0.002,0-0.005,0-0.006   C100,32.75,100,32.748,100,32.746z M49.897,8.956l17.747,10.246L26.584,42.908L8.971,32.739L49.897,8.956z M47.159,89.345   L5.93,65.541l0.079-27.67l41.228,23.803L47.159,89.345z M50.2,56.542L32.509,46.329L73.57,22.623l17.556,10.136L50.2,56.542z    M93.981,65.543L53.084,89.311l0.078-27.637l40.898-23.767L93.981,65.543z"/>
	<polygon points="43.817,83.419 26.114,73.198 26.147,61.316 43.851,71.537  "/>
</g>
</svg>
